<?xml version="1.0" encoding="UTF-8"?>
<svg xmlns="http://www.w3.org/2000/svg" version="1.1" xmlns:v="https://vecta.io/nano" viewBox="0 0 28 28">
  <defs>
    <style>
      .cls-1 {
        fill: #e31937;
      }

      .cls-2 {
        fill: #fff;
      }
    </style>
  </defs>
  <!-- Generator: Adobe Illustrator 28.7.5, SVG Export Plug-In . SVG Version: 1.2.0 Build 176)  -->
  <g>
    <g id="Layer_1">
      <g>
        <path class="cls-2" d="M18.9,14.1c0,2.7-2.2,4.9-4.9,4.9-2.7,0-4.9-2.2-4.9-4.9,0-2.7,2.2-4.9,4.9-4.9,2.7,0,4.9,2.2,4.9,4.9ZM13.5,15.1v-2c-.5,0-1-.2-1.5-.2-.2.9-.2,1.7,0,2.5.5,0,1-.2,1.5-.2ZM16,15.4c.2-.9.2-1.7,0-2.5-.5,0-1,.2-1.5.3v2c.5,0,1,.2,1.5.2ZM11.2,12.5c-.1,0-.2-.1-.3-.2-.1,0-.2-.1-.3-.2-.7,1.2-.6,2.9,0,3.8.2-.1.4-.2.6-.3-.3-1.1-.3-2.1,0-3.2ZM16.8,12.5c.3,1.1.3,2.1,0,3.2.2.1.4.2.6.3.7-.9.7-2.9,0-3.8-.2.1-.4.2-.6.3ZM14.5,17.7s0,0,0,0l1.1-1.4s0,0,0,0c-.4,0-.8-.1-1.2-.2v1.6ZM12.4,16.2c.3.6.7,1.1,1.2,1.5v-1.7c-.4,0-.8.1-1.2.2ZM14.6,10.5s0,0,0,0v1.6c.4,0,.8-.1,1.1-.2h0c-.4-.6-.7-1-1.1-1.5ZM13.5,12.2v-1.7c-.5.4-.9.9-1.2,1.5.4,0,.8.1,1.2.2ZM11.5,16.5c-.1,0-.3.1-.5.2.4.3.7.6,1.1.8,0,0,0,0,0,0-.2-.3-.4-.7-.6-1ZM16.5,16.6c-.2.4-.4.7-.6,1,0,0,0,0,0,0,.3-.3.7-.5,1.1-.8-.2-.1-.3-.2-.5-.2ZM12.1,10.6s0,0,0,0c-.3.3-.7.5-1.1.8.2.1.3.2.5.2.2-.4.4-.7.6-1ZM15.9,10.6s0,0,0,0c.2.3.4.7.6,1,.1,0,.3-.1.5-.2-.4-.3-.7-.6-1.1-.8Z"/>
        <path class="cls-2" d="M18.1,23c0-1.1,0-2.2,0-3.3,0-.6.2-1,.7-1.2.5-.2,1.1-.4,1.7-.5,1.4-.3,2.9-.2,4.3.2.3,0,.6.2.9.4.4.2.5.6.5,1,0,2.2,0,4.4,0,6.7,0,.5-.2.9-.7,1.1-.5.2-1.1.4-1.7.5-1.5.3-3,.2-4.5-.2-.2,0-.5-.2-.7-.3-.4-.2-.6-.6-.6-1.1,0-1.1,0-2.2,0-3.3ZM19,20.5c0,.4,0,.7,0,1,0,.1,0,.3.2.4.3.1.5.3.8.3,1.2.3,2.4.3,3.5.2.5,0,1-.3,1.5-.4.1,0,.3-.2.3-.3,0-.4,0-.8,0-1.1-2.1.7-4.2.7-6.4,0ZM25.3,25.3c-2.1.7-4.3.7-6.4,0-.1,1.3,0,1.5,1.3,1.8,1,.2,2.1.3,3.1,0,.6,0,1.1-.3,1.7-.4.1,0,.3-.2.3-.3,0-.4,0-.8,0-1.2ZM19,22.9c0,.2,0,.3,0,.5,0,.9,0,1,.9,1.2,1.2.3,2.4.4,3.6.2.5,0,1-.3,1.5-.4.1,0,.3-.2.3-.3,0-.4,0-.8,0-1.1-2.1.7-4.2.7-6.4,0ZM19,19.5c.3.1.5.3.8.3.8.2,1.6.3,2.4.3.9,0,1.8,0,2.6-.4.2,0,.3-.2.5-.3-1-1-5.4-1-6.4,0Z"/>
        <path class="cls-2" d="M7.1,6.7v.8c.2,0,.4,0,.6,0,.7,0,1.1.4,1.1,1.1,0,.2,0,.4,0,.6,0,.3-.2.4-.5.5-2.1,0-4.2,0-6.4,0-.3,0-.5-.2-.5-.5,0-.2,0-.5,0-.7,0-.5.4-.9.9-1,.3,0,.5,0,.8,0v-.8c0,0-.2,0-.3,0-.6,0-1.2,0-1.7,0-.7,0-1.2-.5-1.2-1.2,0-1.4,0-2.8,0-4.3C0,.6.5,0,1.2,0c2.7,0,5.3,0,8,0,.6,0,1.1.5,1.2,1.1,0,1.4,0,2.9,0,4.3,0,.7-.5,1.1-1.2,1.1-.7,0-1.3,0-2,0ZM5.1,5.8c1.3,0,2.5,0,3.8,0,.4,0,.4,0,.4-.4,0-1.3,0-2.6,0-4,0-.3,0-.4-.4-.4-2.6,0-5.1,0-7.7,0-.3,0-.4,0-.4.4,0,1.3,0,2.6,0,3.9,0,.4,0,.4.4.4,1.3,0,2.5,0,3.8,0ZM7.9,8.7c0-.3,0-.3-.3-.3-1.6,0-3.2,0-4.9,0,0,0-.2,0-.3,0v.3h5.4ZM6.2,6.7h-2v.8h2v-.8Z"/>
        <path class="cls-2" d="M22.1,7.5c-1.2,0-2.3,0-3.5,0-1.2,0-2.1-.8-2.3-2-.1-.9.2-1.6.9-2.1,0,0,.2-.2.2-.3.3-2.6,3.1-3.9,5.3-2.4,0,0,.2,0,.3,0,1.7-.3,3,.6,3.6,2.2,0,.1.2.2.3.3.8.5,1.2,1.4,1.1,2.2-.1.9-.8,1.7-1.7,1.9-.2,0-.5,0-.7,0-1.2,0-2.3,0-3.5,0ZM22.2,6.6c1.2,0,2.4,0,3.6,0,.7,0,1.2-.5,1.4-1.2.1-.6-.3-1.2-.9-1.5-.3,0-.4-.2-.4-.5-.2-1.3-1.4-2.1-2.7-1.7-.3,0-.5,0-.7-.1-.8-.7-1.7-.8-2.6-.4-.9.4-1.4,1.2-1.4,2.2,0,.3-.1.5-.4.6-.4.2-.6.5-.7.9-.2.9.4,1.7,1.4,1.7,1.2,0,2.4,0,3.5,0Z"/>
        <path class="cls-2" d="M5.6,14.5c0,.1,0,.2,0,.3,0,1.5,0,2.9,0,4.4,0,.1,0,.2,0,.3,0,.2-.2.3-.4.3-.2,0-.4-.1-.4-.4,0,0,0-.1,0-.2,0-2.7,0-5.5,0-8.2,0,0,0-.2,0-.3,0-.2.2-.3.4-.4.2,0,.4,0,.5.3,0,.1,0,.2,0,.4,0,.8,0,1.7,0,2.5.6,0,1.1,0,1.6,0,.2,0,.3,0,.5,0,.3,0,.5.2.5.4,0,.3-.2.4-.5.4-.6,0-1.3,0-1.9,0,0,0-.1,0-.2,0Z"/>
        <path class="cls-2" d="M21.7,14.5c-.7,0-1.4,0-2,0-.4,0-.6-.2-.6-.5,0-.3.2-.4.6-.4.7,0,1.3,0,2,0v-.3c0-1.3,0-2.6,0-3.9,0,0,0-.2,0-.3,0-.2.2-.4.4-.4.2,0,.4.1.4.4,0,0,0,.2,0,.3,0,2.2,0,4.4,0,6.5,0,0,0,.1,0,.2,0,.3-.2.4-.5.4-.2,0-.4-.2-.4-.5,0-.4,0-.8,0-1.2,0-.1,0-.2,0-.3Z"/>
        <path class="cls-2" d="M5.2,20.7c1.7,0,3.1.7,4.3,1.9.2.2.2.5,0,.7-.2.2-.5.2-.7,0-.9-1-2-1.5-3.4-1.6-1.5,0-2.7.5-3.8,1.5,0,0-.2.2-.2.2-.2.1-.4.1-.6,0-.2-.2-.2-.4,0-.6,0,0,0,0,.1-.1,1.2-1.2,2.6-1.9,4.3-1.9Z"/>
        <path class="cls-2" d="M14.5,4.2c0,.2,0,.3,0,.5,0,1.1,0,2.1,0,3.2,0,.4-.2.6-.4.6-.3,0-.5-.2-.5-.6,0-1.1,0-2.2,0-3.3,0-.1,0-.2,0-.3-.4,0-.7,0-1.1,0,0,0-.2,0-.3,0-.3,0-.4-.2-.4-.5,0-.2.2-.4.5-.4,1.2,0,2.4,0,3.6,0,.3,0,.4.2.5.4,0,.3-.2.5-.5.5-.4,0-.9,0-1.3,0Z"/>
        <path class="cls-2" d="M14.5,24c.4,0,.8,0,1.2,0,.3,0,.6.2.5.5,0,.3-.2.4-.5.4-1.1,0-2.3,0-3.4,0-.3,0-.5-.2-.5-.4,0-.3.2-.5.5-.5.4,0,.8,0,1.3,0,0-.1,0-.2,0-.3,0-1.1,0-2.2,0-3.3,0-.4.2-.6.4-.6.3,0,.5.2.5.6,0,1.1,0,2.2,0,3.2,0,.1,0,.2,0,.3Z"/>
        <path class="cls-2" d="M5.2,22.5c1.2,0,2.3.5,3.1,1.4.2.2.2.5,0,.7-.2.2-.5.2-.7,0-1.5-1.5-3.5-1.5-5,0-.2.2-.5.3-.7,0-.2-.2-.2-.5,0-.7.9-.9,1.9-1.4,3.2-1.4Z"/>
        <path class="cls-2" d="M5.1,24.2c.8,0,1.5.3,2,.9.2.2.2.5,0,.7-.2.2-.4.2-.7,0-.9-.8-1.9-.8-2.8,0-.2.2-.5.2-.7,0-.2-.2-.2-.5,0-.7.6-.6,1.2-.9,2-.9Z"/>
        <path class="cls-2" d="M5.2,27.7c-.4,0-.7-.3-.7-.7,0-.4.3-.7.7-.7.4,0,.7.3.7.7,0,.4-.3.7-.7.7Z"/>
        <path class="cls-1" d="M13.5,15.1c-.5,0-1,.2-1.5.2-.2-.8-.2-1.7,0-2.5.5,0,1,.2,1.5.2v2Z"/>
        <path class="cls-1" d="M16,15.4c-.5,0-1-.2-1.5-.2v-2c.5,0,1-.2,1.5-.3.2.8.2,1.7,0,2.5Z"/>
        <path class="cls-1" d="M11.2,12.5c-.3,1.1-.3,2.1,0,3.2-.2.1-.4.2-.6.3-.7-.9-.7-2.7,0-3.8,0,0,.2.1.3.2.1,0,.2.1.3.2Z"/>
        <path class="cls-1" d="M16.8,12.5c.2-.1.4-.2.6-.3.7.9.7,2.9,0,3.8-.2-.1-.4-.2-.6-.3.3-1.1.3-2.1,0-3.2Z"/>
        <path class="cls-1" d="M14.5,17.7v-1.6c.4,0,.8.1,1.2.2,0,0,0,0,0,0l-1.1,1.4s0,0,0,0Z"/>
        <path class="cls-1" d="M12.4,16.2c.4,0,.8-.1,1.2-.2v1.7c-.5-.4-.9-.9-1.2-1.5Z"/>
        <path class="cls-1" d="M14.6,10.5c.4.5.7.9,1.1,1.4h0c-.4.2-.7.2-1.1.3v-1.6s0,0,0,0Z"/>
        <path class="cls-1" d="M13.5,12.2c-.4,0-.8-.1-1.2-.2.3-.6.7-1.1,1.2-1.5v1.7Z"/>
        <path class="cls-1" d="M11.5,16.5c.2.4.4.7.6,1,0,0,0,0,0,0-.3-.3-.7-.5-1.1-.8.2-.1.3-.2.5-.2Z"/>
        <path class="cls-1" d="M16.5,16.6c.1,0,.3.1.5.2-.4.3-.7.6-1.1.8,0,0,0,0,0,0,.2-.3.4-.7.6-1Z"/>
        <path class="cls-1" d="M12.1,10.6c-.2.3-.4.7-.6,1-.1,0-.3-.1-.5-.2.4-.3.7-.6,1.1-.8,0,0,0,0,0,0Z"/>
        <path class="cls-1" d="M15.9,10.6c.3.3.7.5,1.1.8-.2.1-.3.2-.5.2-.2-.3-.4-.7-.6-1,0,0,0,0,0,0Z"/>
        <path class="cls-2" d="M19.9,21.4c0,.2-.2.4-.4.4-.2,0-.4-.2-.4-.4,0-.2.2-.4.4-.4.2,0,.4.2.4.4Z"/>
        <path class="cls-2" d="M19.9,26.2c0,.2-.2.4-.4.4-.2,0-.4-.2-.4-.5,0-.2.2-.4.4-.4.2,0,.4.2.4.4Z"/>
        <path class="cls-2" d="M19.9,23.7c0,.2-.2.4-.4.4-.2,0-.4-.2-.4-.4,0-.2.2-.4.4-.4.2,0,.4.2.4.4Z"/>
      </g>
    </g>
  </g>
</svg>